<mxfile host="app.diagrams.net" modified="2021-05-18T13:25:12.450Z" agent="5.0 (Windows NT 10.0; Win64; x64) AppleWebKit/537.36 (KHTML, like Gecko) Chrome/90.0.4430.212 Safari/537.36" etag="xcXYDaemm9PvcfwWVuCX" version="14.6.12" type="github">
  <diagram id="n-laHBnduBw5LovDpCxe" name="Page-1">
    <mxGraphModel dx="981" dy="526" grid="1" gridSize="10" guides="1" tooltips="1" connect="1" arrows="1" fold="1" page="1" pageScale="1" pageWidth="827" pageHeight="1169" math="0" shadow="0">
      <root>
        <mxCell id="0" />
        <mxCell id="1" parent="0" />
        <mxCell id="ihhoRJ97Q1jEPf6if9Vg-5" value="" style="endArrow=none;html=1;fillColor=#f8cecc;strokeColor=#b85450;" edge="1" parent="1">
          <mxGeometry width="50" height="50" relative="1" as="geometry">
            <mxPoint x="270" y="349.76" as="sourcePoint" />
            <mxPoint x="360" y="350" as="targetPoint" />
          </mxGeometry>
        </mxCell>
        <mxCell id="ihhoRJ97Q1jEPf6if9Vg-6" value="" style="endArrow=none;html=1;" edge="1" parent="1">
          <mxGeometry width="50" height="50" relative="1" as="geometry">
            <mxPoint x="270" y="329.76" as="sourcePoint" />
            <mxPoint x="360" y="330" as="targetPoint" />
          </mxGeometry>
        </mxCell>
        <mxCell id="ihhoRJ97Q1jEPf6if9Vg-7" value="" style="endArrow=none;html=1;fillColor=#60a917;strokeColor=#2D7600;" edge="1" parent="1">
          <mxGeometry width="50" height="50" relative="1" as="geometry">
            <mxPoint x="270" y="309.76" as="sourcePoint" />
            <mxPoint x="360" y="310" as="targetPoint" />
          </mxGeometry>
        </mxCell>
        <mxCell id="ihhoRJ97Q1jEPf6if9Vg-8" value="" style="endArrow=none;html=1;gradientColor=#97d077;fillColor=#d5e8d4;strokeColor=#82b366;" edge="1" parent="1">
          <mxGeometry width="50" height="50" relative="1" as="geometry">
            <mxPoint x="270" y="289.76" as="sourcePoint" />
            <mxPoint x="360" y="290" as="targetPoint" />
          </mxGeometry>
        </mxCell>
        <mxCell id="ihhoRJ97Q1jEPf6if9Vg-9" value="" style="endArrow=none;html=1;fillColor=#1ba1e2;strokeColor=#006EAF;" edge="1" parent="1">
          <mxGeometry width="50" height="50" relative="1" as="geometry">
            <mxPoint x="270" y="269.76" as="sourcePoint" />
            <mxPoint x="360" y="270" as="targetPoint" />
          </mxGeometry>
        </mxCell>
        <mxCell id="ihhoRJ97Q1jEPf6if9Vg-10" value="" style="endArrow=none;html=1;gradientColor=#7ea6e0;fillColor=#dae8fc;strokeColor=#6c8ebf;" edge="1" parent="1">
          <mxGeometry width="50" height="50" relative="1" as="geometry">
            <mxPoint x="270" y="250" as="sourcePoint" />
            <mxPoint x="360" y="250" as="targetPoint" />
          </mxGeometry>
        </mxCell>
        <mxCell id="ihhoRJ97Q1jEPf6if9Vg-11" value="Grønn, RX -" style="text;html=1;align=center;verticalAlign=middle;resizable=0;points=[];autosize=1;strokeColor=none;" vertex="1" parent="1">
          <mxGeometry x="160" y="300" width="80" height="20" as="geometry" />
        </mxCell>
        <mxCell id="ihhoRJ97Q1jEPf6if9Vg-12" value="Blå, TX -" style="text;html=1;align=center;verticalAlign=middle;resizable=0;points=[];autosize=1;strokeColor=none;" vertex="1" parent="1">
          <mxGeometry x="160" y="260" width="60" height="20" as="geometry" />
        </mxCell>
        <mxCell id="ihhoRJ97Q1jEPf6if9Vg-13" value="Rød, +12 V" style="text;html=1;align=center;verticalAlign=middle;resizable=0;points=[];autosize=1;strokeColor=none;" vertex="1" parent="1">
          <mxGeometry x="160" y="340" width="80" height="20" as="geometry" />
        </mxCell>
        <mxCell id="ihhoRJ97Q1jEPf6if9Vg-14" value="Svart, GND" style="text;html=1;align=center;verticalAlign=middle;resizable=0;points=[];autosize=1;strokeColor=none;" vertex="1" parent="1">
          <mxGeometry x="160" y="320" width="80" height="20" as="geometry" />
        </mxCell>
        <mxCell id="ihhoRJ97Q1jEPf6if9Vg-15" value="Hvit/grønn, RX +" style="text;html=1;align=center;verticalAlign=middle;resizable=0;points=[];autosize=1;strokeColor=none;" vertex="1" parent="1">
          <mxGeometry x="160" y="280" width="100" height="20" as="geometry" />
        </mxCell>
        <mxCell id="ihhoRJ97Q1jEPf6if9Vg-16" value="Hvit/Blå, TX +" style="text;html=1;align=center;verticalAlign=middle;resizable=0;points=[];autosize=1;strokeColor=none;" vertex="1" parent="1">
          <mxGeometry x="160" y="240" width="90" height="20" as="geometry" />
        </mxCell>
        <mxCell id="ihhoRJ97Q1jEPf6if9Vg-19" value="" style="endArrow=none;html=1;fillColor=#a0522d;strokeColor=#6D1F00;" edge="1" parent="1">
          <mxGeometry width="50" height="50" relative="1" as="geometry">
            <mxPoint x="370" y="310" as="sourcePoint" />
            <mxPoint x="460.0000000000001" y="310" as="targetPoint" />
          </mxGeometry>
        </mxCell>
        <mxCell id="ihhoRJ97Q1jEPf6if9Vg-20" value="" style="endArrow=none;html=1;fillColor=#a0522d;strokeColor=#6D1F00;" edge="1" parent="1">
          <mxGeometry width="50" height="50" relative="1" as="geometry">
            <mxPoint x="370" y="290" as="sourcePoint" />
            <mxPoint x="460.0000000000001" y="290" as="targetPoint" />
          </mxGeometry>
        </mxCell>
        <mxCell id="ihhoRJ97Q1jEPf6if9Vg-21" value="" style="endArrow=none;html=1;fillColor=#1ba1e2;strokeColor=#006EAF;" edge="1" parent="1">
          <mxGeometry width="50" height="50" relative="1" as="geometry">
            <mxPoint x="370" y="270" as="sourcePoint" />
            <mxPoint x="460.0000000000001" y="270" as="targetPoint" />
          </mxGeometry>
        </mxCell>
        <mxCell id="ihhoRJ97Q1jEPf6if9Vg-22" value="" style="endArrow=none;html=1;gradientColor=#7ea6e0;fillColor=#dae8fc;strokeColor=#6c8ebf;" edge="1" parent="1">
          <mxGeometry width="50" height="50" relative="1" as="geometry">
            <mxPoint x="370" y="250" as="sourcePoint" />
            <mxPoint x="460.0000000000001" y="250" as="targetPoint" />
          </mxGeometry>
        </mxCell>
        <mxCell id="ihhoRJ97Q1jEPf6if9Vg-23" value="Brun, RX -" style="text;html=1;align=center;verticalAlign=middle;resizable=0;points=[];autosize=1;strokeColor=none;" vertex="1" parent="1">
          <mxGeometry x="465" y="300" width="70" height="20" as="geometry" />
        </mxCell>
        <mxCell id="ihhoRJ97Q1jEPf6if9Vg-24" value="Blå, TX -" style="text;html=1;align=center;verticalAlign=middle;resizable=0;points=[];autosize=1;strokeColor=none;" vertex="1" parent="1">
          <mxGeometry x="460" y="260" width="60" height="20" as="geometry" />
        </mxCell>
        <mxCell id="ihhoRJ97Q1jEPf6if9Vg-27" value="Hvit/brun, RX +" style="text;html=1;align=center;verticalAlign=middle;resizable=0;points=[];autosize=1;strokeColor=none;" vertex="1" parent="1">
          <mxGeometry x="460" y="280" width="100" height="20" as="geometry" />
        </mxCell>
        <mxCell id="ihhoRJ97Q1jEPf6if9Vg-28" value="Hvit/Blå, TX +" style="text;html=1;align=center;verticalAlign=middle;resizable=0;points=[];autosize=1;strokeColor=none;" vertex="1" parent="1">
          <mxGeometry x="460" y="240" width="90" height="20" as="geometry" />
        </mxCell>
        <mxCell id="ihhoRJ97Q1jEPf6if9Vg-29" value="Kamera" style="text;html=1;align=center;verticalAlign=middle;resizable=0;points=[];autosize=1;strokeColor=none;" vertex="1" parent="1">
          <mxGeometry x="90" y="230" width="60" height="20" as="geometry" />
        </mxCell>
        <mxCell id="ihhoRJ97Q1jEPf6if9Vg-30" value="Til hoved-ROV" style="text;html=1;align=center;verticalAlign=middle;resizable=0;points=[];autosize=1;strokeColor=none;" vertex="1" parent="1">
          <mxGeometry x="565" y="230" width="90" height="20" as="geometry" />
        </mxCell>
        <mxCell id="ihhoRJ97Q1jEPf6if9Vg-31" value="" style="rounded=0;whiteSpace=wrap;html=1;fillColor=none;dashed=1;" vertex="1" parent="1">
          <mxGeometry x="90" y="220" width="220" height="160" as="geometry" />
        </mxCell>
        <mxCell id="ihhoRJ97Q1jEPf6if9Vg-32" value="" style="rounded=0;whiteSpace=wrap;html=1;fillColor=none;dashed=1;" vertex="1" parent="1">
          <mxGeometry x="450" y="220" width="220" height="160" as="geometry" />
        </mxCell>
        <mxCell id="ihhoRJ97Q1jEPf6if9Vg-33" value="" style="rounded=0;whiteSpace=wrap;html=1;dashed=1;fillColor=none;" vertex="1" parent="1">
          <mxGeometry x="350" y="240" width="30" height="80" as="geometry" />
        </mxCell>
        <mxCell id="ihhoRJ97Q1jEPf6if9Vg-34" value="Scotch-&lt;br&gt;lock" style="text;html=1;align=center;verticalAlign=middle;resizable=0;points=[];autosize=1;strokeColor=none;" vertex="1" parent="1">
          <mxGeometry x="340" y="200" width="60" height="30" as="geometry" />
        </mxCell>
      </root>
    </mxGraphModel>
  </diagram>
</mxfile>
